#!OML:ASF H:\Terrain\Patient Classification 1\Walking\liu\liu.ASF
:FULLY-SPECIFIED
:DEGREES
95
root 8.59779 15.2752 -18.8347 9.57203 4.82583 7.31034
lowerback -2.8861 -5.20292 -8.56862
upperback 0.307507 -6.66366 1.33428
thorax 3.07507 -3.47432 5.73735
lowerneck -22.3475 -2.11776 -12.7259
upperneck 14.6596 -1.61414 13.8173
head 8.45006 -0.0373436 6.67967
rclavicle 1.73937e-014 9.54166e-015
rhumerus -59.8137 -7.33001 -49.4564
rradius 17.7146
rwrist 7.03037
rhand -28.2414 -22.7304
rfingers 7.12502
rthumb -1.61908 -52.704
lclavicle 1.73937e-014 9.54166e-015
lhumerus 0.179849 -26.0395 79.0446
lradius 41.366
lwrist 12.2165
lhand -18.3217 -29.2815
lfingers 7.12502
lthumb 7.9598 0.548612
rfemur -53.544 1.68662 10.0424
rtibia 36.8092
rfoot -10.0776 -5.71933
rtoes -25.4748
lfemur 23.7726 2.74749 -27.9041
ltibia -1.90833e-014
lfoot -15.0747 -1.36466
ltoes -11.8594
96
root 8.58488 15.2604 -18.558 9.63473 4.74158 7.16071
lowerback -2.89892 -5.2284 -8.31009
upperback 0.280294 -6.70918 1.41867
thorax 3.0413 -3.49188 5.67891
lowerneck -22.4033 -2.06256 -12.8841
upperneck 14.4641 -1.50376 14.0152
head 8.38133 0.0283829 6.7868
rclavicle 6.2319e-014 7.95139e-015
rhumerus -60.046 -8.86627 -46.8522
rradius 17.0218
rwrist 8.76925
rhand -28.4943 -22.868
rfingers 7.12502
rthumb -1.86329 -52.8397
lclavicle 6.2319e-014 7.95139e-015
lhumerus 0.198413 -25.6521 79.0972
lradius 41.4487
lwrist 12.5442
lhand -19.1366 -29.5637
lfingers 7.12502
lthumb 7.17325 0.294704
rfemur -54.228 1.0777 10.8017
rtibia 39.2941
rfoot -8.64374 -5.41539
rtoes -23.6278
lfemur 24.6391 3.15626 -27.3606
ltibia 1.90833e-014
lfoot -13.6193 -1.68449
ltoes -13.821
97
root 8.57188 15.2302 -18.2912 9.78984 4.6087 6.87354
lowerback -2.96056 -5.30815 -8.07997
upperback 0.316841 -6.82518 1.68126
thorax 3.13885 -3.55485 5.8068
lowerneck -23.5752 -1.93007 -12.2547
upperneck 14.8908 -1.2702 13.2386
head 8.67873 0.127745 6.46623
rclavicle -3.32964e-014 -1.59028e-015
rhumerus -59.897 -10.5776 -44.0617
rradius 16.2267
rwrist 10.8673
rhand -28.7411 -23.5694
rfingers 7.12502
rthumb -2.10171 -53.5388
lclavicle -3.32964e-014 -1.59028e-015
lhumerus -0.0938543 -24.4621 79.5109
lradius 41.8946
lwrist 12.5221
lhand -19.4045 -29.3883
lfingers 7.12502
lthumb 6.91467 0.478752
rfemur -54.8842 0.496319 11.7711
rtibia 41.7974
rfoot -8.07794 -4.88589
rtoes -19.7654
lfemur 25.3422 3.62253 -26.7093
ltibia 7.31528e-014
lfoot -11.6772 -1.60894
ltoes -15.6764
98
root 8.55938 15.1965 -18.0314 9.97574 4.49373 6.92709
lowerback -2.99444 -5.30927 -8.09208
upperback 0.161437 -6.83096 1.79087
thorax 3.01125 -3.54964 5.93315
lowerneck -24.464 -1.97489 -11.4112
upperneck 15.8718 -1.33727 12.0106
head 9.15723 0.0327145 5.91909
rclavicle -3.67752e-014 6.36111e-015
rhumerus -60.3773 -12.4809 -40.7916
rradius 15.462
rwrist 13.4806
rhand -29.1815 -24.1858
rfingers 7.12502
rthumb -2.52702 -54.1506
lclavicle -3.67752e-014 6.36111e-015
lhumerus -0.944131 -23.4447 80.3101
lradius 42.5497
lwrist 12.3746
lhand -19.226 -29.1961
lfingers 7.12502
lthumb 7.08695 0.66524
rfemur -55.4425 -0.0763368 12.2889
rtibia 44.1618
rfoot -7.66701 -4.35017
rtoes -20.4308
lfemur 25.9683 4.02265 -26.43
ltibia -3.18055e-015
lfoot -9.30034 -1.28361
ltoes -16.702
99
root 8.54467 15.177 -17.7661 10.0539 4.23942 6.8858
lowerback -3.00391 -5.23777 -7.95829
upperback 0.110251 -6.74112 1.7966
thorax 2.93287 -3.49815 5.87597
lowerneck -23.4885 -1.86906 -12.163
upperneck 14.9991 -1.1772 12.9594
head 8.68326 0.144206 6.36332
rclavicle 1.78906e-014 2.06736e-014
rhumerus -60.9452 -14.2862 -37.9795
rradius 14.9255
rwrist 15.949
rhand -29.5672 -24.2348
rfingers 7.12502
rthumb -2.89952 -54.1948
lclavicle 1.78906e-014 2.06736e-014
lhumerus -1.63703 -23.0941 80.6474
lradius 43.0863
lwrist 12.7968
lhand -19.5523 -29.402
lfingers 7.12502
lthumb 6.77205 0.469653
rfemur -55.8002 -0.370858 12.7885
rtibia 46.2954
rfoot -7.23442 -3.67262
rtoes -21.5685
lfemur 26.744 4.57824 -26.0708
ltibia -2.8625e-014
lfoot -6.70768 -0.779674
ltoes -17.8588
100
root 8.52474 15.1684 -17.4931 9.93577 3.79471 6.59996
lowerback -2.92046 -5.14782 -7.67158
upperback 0.0738471 -6.64117 1.88241
thorax 2.80874 -3.43958 5.8264
lowerneck -23.2314 -1.75952 -12.2341
upperneck 14.8551 -1.0289 13.0004
head 8.56974 0.207865 6.39903
rclavicle 4.83047e-014 -5.56597e-015
rhumerus -61.173 -15.0669 -36.4697
rradius 14.6107
rwrist 17.4143
rhand -29.7047 -24.7472
rfingers 7.12502
rthumb -3.03232 -54.7054
lclavicle 4.83047e-014 -5.56597e-015
lhumerus -2.58957 -22.9356 80.8991
lradius 43.6286
lwrist 13.6088
lhand -20.1251 -29.0045
lfingers 7.12502
lthumb 6.21907 0.884174
rfemur -55.9071 -0.336401 13.5181
rtibia 48.1353
rfoot -6.78297 -2.95078
rtoes -19.759
lfemur 27.7769 5.36337 -25.4612
ltibia 6.67916e-014
lfoot -3.30379 0.0873612
ltoes -18.6876
101
root 8.50423 15.1698 -17.224 9.74897 3.40437 6.32497
lowerback -2.72745 -5.08278 -7.47654
upperback 0.0466533 -6.58072 2.04884
thorax 2.66012 -3.40296 5.91714
lowerneck -23.244 -1.70628 -12.3005
upperneck 14.9927 -0.927528 12.9296
head 8.60319 0.243626 6.40362
rclavicle 5.13858e-014 3.81667e-014
rhumerus -61.1921 -15.9671 -34.8876
rradius 14.2217
rwrist 19.0566
rhand -29.7513 -25.7294
rfingers 7.12502
rthumb -3.07727 -55.687
lclavicle 5.13858e-014 3.81667e-014
lhumerus -3.57497 -22.6242 81.3267
lradius 44.0666
lwrist 14.239
lhand -20.4812 -28.4946
lfingers 7.12502
lthumb 5.87529 1.40393
rfemur -55.7484 -0.360311 14.3087
rtibia 49.6305
rfoot -6.73489 -2.46757
rtoes -19.0823
lfemur 28.8285 6.09865 -24.8591
ltibia 3.18055e-015
lfoot 0.916278 1.47675
ltoes -19.572
102
root 8.48855 15.1734 -16.9624 9.51466 3.23629 6.10003
lowerback -2.32478 -5.03698 -7.28524
upperback -0.0154272 -6.55972 2.19117
thorax 2.36152 -3.37958 6.00225
lowerneck -22.8875 -1.65811 -12.4647
upperneck 14.9177 -0.851413 12.9757
head 8.50629 0.265218 6.4478
rclavicle 3.11098e-014 -7.15625e-015
rhumerus -61.5753 -17.5898 -32.3671
rradius 13.8053
rwrist 21.8205
rhand -29.9248 -26.1665
rfingers 7.12502
rthumb -3.24488 -56.1215
lclavicle 3.11098e-014 -7.15625e-015
lhumerus -4.66673 -22.4438 81.8286
lradius 44.4415
lwrist 14.7034
lhand -20.7127 -28.7234
lfingers 7.12502
lthumb 5.65172 1.1812
rfemur -55.2653 -0.737903 15.1967
rtibia 50.8158
rfoot -7.05793 -2.06276
rtoes -20.2825
lfemur 29.8063 6.62691 -24.319
ltibia 8.90555e-014
lfoot 5.14993 2.966
ltoes -20.2003
103
root 8.47194 15.186 -16.6991 9.32731 3.20609 5.63611
lowerback -2.01068 -4.944 -6.73964
upperback -0.0267073 -6.47249 2.2628
thorax 2.10695 -3.32142 5.81052
lowerneck -22.8888 -1.6758 -12.1079
upperneck 15.0556 -0.923169 12.5836
head 8.55878 0.210387 6.24052
rclavicle 9.67087e-014 1.59028e-014
rhumerus -62.1716 -19.1342 -30.3822
rradius 13.5609
rwrist 24.2706
rhand -30.1828 -26.1625
rfingers 7.12502
rthumb -3.49395 -56.1136
lclavicle 9.67087e-014 1.59028e-014
lhumerus -5.53616 -22.8662 82.0617
lradius 44.6672
lwrist 15.4482
lhand -20.6942 -28.9662
lfingers 7.12502
lthumb 5.66956 0.937927
rfemur -54.5676 -1.06857 16.255
rtibia 51.7437
rfoot -7.50821 -1.45437
rtoes -19.6268
lfemur 25.3868 7.31706 -23.3639
ltibia 10.2313
lfoot 4.45988 2.88303
ltoes -19.0715
104
root 8.45005 15.2207 -16.435 9.16097 3.09432 4.76991
lowerback -1.71537 -4.82517 -5.91969
upperback -0.0219384 -6.35348 2.50916
thorax 1.86675 -3.24851 5.64647
lowerneck -23.4594 -1.69717 -11.6513
upperneck 15.5943 -0.964429 12.0306
head 8.8393 0.170628 5.98857
rclavicle -1.73937e-014 -2.22639e-014
rhumerus -62.2954 -20.1005 -29.524
rradius 13.3881
rwrist 25.6236
rhand -30.481 -26.3154
rfingers 7.12502
rthumb -3.78198 -56.2616
lclavicle -1.73937e-014 -2.22639e-014
lhumerus -6.37772 -23.0881 82.3814
lradius 44.6777
lwrist 15.9129
lhand -20.1489 -29.451
lfingers 7.12502
lthumb 6.19608 0.438372
rfemur -53.6921 -1.00382 17.5382
rtibia 52.4385
rfoot -8.59703 -0.958881
rtoes -18.0563
lfemur 22.0863 8.12965 -21.9652
ltibia 18.136
lfoot 5.18254 3.4468
ltoes -15.5739
105
root 8.43109 15.2592 -16.1799 8.94576 3.01939 4.01776
lowerback -1.32352 -4.72132 -5.24609
upperback 0.0303909 -6.2495 2.75818
thorax 1.64231 -3.18744 5.56956
lowerneck -23.4711 -1.71278 -11.8163
upperneck 15.6414 -0.954543 12.1377
head 8.8575 0.176578 6.05901
rclavicle -4.67144e-015 2.62396e-014
rhumerus -62.0952 -20.9151 -29.2481
rradius 13.1876
rwrist 26.4028
rhand -30.6724 -26.0331
rfingers 7.12502
rthumb -3.96676 -55.9759
lclavicle -4.67144e-015 2.62396e-014
lhumerus -7.21639 -23.049 82.8091
lradius 44.6637
lwrist 15.8188
lhand -19.5106 -29.6372
lfingers 7.12502
lthumb 6.81226 0.233174
rfemur -52.6587 -0.963831 18.602
rtibia 52.9458
rfoot -10.0318 -0.655058
rtoes -17.5142
lfemur 19.4428 8.71103 -20.8052
ltibia 24.6067
lfoot 7.15664 5.04787
ltoes -10.1353
106
root 8.41593 15.2996 -15.9323 8.8923 3.08536 3.34052
lowerback -1.17019 -4.65942 -4.55461
upperback 0.206185 -6.18495 2.92223
thorax 1.67407 -3.15531 5.36315
lowerneck -23.3146 -1.77743 -12.1522
upperneck 15.2465 -1.01213 12.5747
head 8.70938 0.174901 6.24919
rclavicle 5.53615e-014 -3.02153e-014
rhumerus -61.3276 -21.2005 -30.5186
rradius 13.1338
rwrist 25.7197
rhand -30.6622 -25.9162
rfingers 7.12502
rthumb -3.95698 -55.8592
lclavicle 5.53615e-014 -3.02153e-014
lhumerus -7.75185 -23.3971 82.9656
lradius 44.8073
lwrist 15.9671
lhand -19.2665 -29.2356
lfingers 7.12502
lthumb 7.04795 0.627021
rfemur -51.6574 -0.967425 19.4838
rtibia 53.2782
rfoot -11.2119 -0.365412
rtoes -16.4757
lfemur 16.7283 9.15576 -19.7827
ltibia 30.5303
lfoot 8.15709 6.48308
ltoes -10.7275
107
root 8.39554 15.337 -15.6928 8.78456 3.09081 2.38782
lowerback -0.862071 -4.45712 -3.62138
upperback 0.152327 -5.93893 3.22923
thorax 1.35157 -3.01721 5.20327
lowerneck -22.9591 -1.94139 -12.5686
upperneck 15.1105 -1.16729 12.7533
head 8.62744 0.0868848 6.35227
rclavicle 2.67365e-014 2.38542e-015
rhumerus -60.4554 -19.8487 -33.3337
rradius 13.4255
rwrist 23.0335
rhand -30.8976 -26.2806
rfingers 7.12502
rthumb -4.18424 -56.2193
lclavicle 2.67365e-014 2.38542e-015
lhumerus -8.85645 -24.0496 83.6991
lradius 44.9859
lwrist 16.1007
lhand -19.1766 -28.8531
lfingers 7.12502
lthumb 7.13467 1.00663
rfemur -50.51 -0.710438 20.6126
rtibia 53.4506
rfoot -12.3041 -0.122004
rtoes -14.8001
lfemur 14.2058 9.8019 -18.4017
ltibia 36.0645
lfoot 6.92015 7.6408
ltoes -17.209
108
root 8.37066 15.3726 -15.4536 8.57857 3.04856 1.31497
lowerback -0.483008 -4.24919 -2.67095
upperback 0.197392 -5.67853 3.52547
thorax 1.09237 -2.87695 5.01989
lowerneck -23.2112 -2.02467 -12.4912
upperneck 15.2594 -1.28047 12.7119
head 8.73688 0.039645 6.31969
rclavicle 1.09332e-015 -1.43125e-014
rhumerus -59.6431 -18.84 -35.9832
rradius 13.684
rwrist 20.8793
rhand -31.236 -25.9836
rfingers 7.12502
rthumb -4.51103 -55.9155
lclavicle 1.09332e-015 -1.43125e-014
lhumerus -9.74727 -24.7287 84.2397
lradius 44.9214
lwrist 16.2763
lhand -18.8802 -28.5631
lfingers 7.12502
lthumb 7.42075 1.28675
rfemur -49.1913 -0.380738 21.926
rtibia 53.4015
rfoot -13.169 0.0287383
rtoes -14.3689
lfemur 11.8723 10.5497 -16.8354
ltibia 41.2569
lfoot 5.21223 9.20211
ltoes -20.4663
109
root 8.35043 15.4199 -15.2124 8.64646 2.99419 0.465092
lowerback -0.414847 -4.07966 -1.96224
upperback 0.281492 -5.46025 3.78274
thorax 1.076 -2.76519 4.89949
lowerneck -23.4719 -2.09515 -12.4175
upperneck 15.1776 -1.3584 12.6757
head 8.76453 0.0113775 6.28517
rclavicle -2.62396e-014 1.66979e-014
rhumerus -58.6632 -18.5364 -38.1446
rradius 13.8685
rwrist 19.4696
rhand -31.0804 -25.9868
rfingers 7.12502
rthumb -4.3608 -55.9219
lclavicle -2.62396e-014 1.66979e-014
lhumerus -10.4185 -25.3393 84.6269
lradius 44.8104
lwrist 16.6677
lhand -18.2731 -28.4958
lfingers 7.12502
lthumb 8.00676 1.33258
rfemur -48.1054 -0.165987 23.0267
rtibia 53.134
rfoot -13.8617 0.115476
rtoes -15.1092
lfemur 9.17175 11.0919 -15.716
ltibia 46.0804
lfoot 4.02238 10.9411
ltoes -17.1858
